<svg width="39" height="26" viewBox="0 0 39 26" fill="none" xmlns="http://www.w3.org/2000/svg">
<rect x="2.5" y="4.10107" width="4" height="4" rx="2" fill="#E02D2D"/>
<rect x="2.5" y="4.10107" width="4" height="4" rx="2" fill="#F4F4F4"/>
<rect x="8.5" y="4.10107" width="4" height="4" rx="2" fill="#E02D2D"/>
<rect x="8.5" y="4.10107" width="4" height="4" rx="2" fill="#F4F4F4"/>
<rect x="14.5" y="4.10107" width="4" height="4" rx="2" fill="#D9D9D9" fill-opacity="0.3"/>
<rect x="20.5" y="4.10107" width="4" height="4" rx="2" fill="#D9D9D9" fill-opacity="0.3"/>
<rect x="26.5" y="4.10107" width="4" height="4" rx="2" fill="#D9D9D9" fill-opacity="0.3"/>
<rect x="32.5" y="4.10107" width="4" height="4" rx="2" fill="#D9D9D9" fill-opacity="0.3"/>
<rect x="2.5" y="11.1011" width="4" height="4" rx="2" fill="#5EBC4E"/>
<rect x="2.5" y="11.1011" width="4" height="4" rx="2" fill="#F4F4F4"/>
<rect x="8.5" y="11.1011" width="4" height="4" rx="2" fill="#5EBC4E"/>
<rect x="8.5" y="11.1011" width="4" height="4" rx="2" fill="#F4F4F4"/>
<rect x="14.5" y="11.1011" width="4" height="4" rx="2" fill="#D9D9D9" fill-opacity="0.3"/>
<rect x="20.5" y="11.1011" width="4" height="4" rx="2" fill="#D9D9D9" fill-opacity="0.3"/>
<rect x="26.5" y="11.1011" width="4" height="4" rx="2" fill="#4B963E"/>
<rect x="32.5" y="11.1011" width="4" height="4" rx="2" fill="#3D7A33"/>
<rect x="2.5" y="18.1011" width="4" height="4" rx="2" fill="#D9D9D9" fill-opacity="0.3"/>
<rect x="8.5" y="18.1011" width="4" height="4" rx="2" fill="#D9D9D9" fill-opacity="0.3"/>
<path d="M14.5 9.60107H24.7" stroke="white" stroke-width="0.5" stroke-linecap="round"/>
<path d="M26.7002 9.60107H36.5002" stroke="#999999" stroke-width="0.5" stroke-linecap="round"/>
<path d="M14.5 2.60107H24.7" stroke="white" stroke-width="0.5" stroke-linecap="round"/>
<path d="M26.7002 2.60107H36.5002" stroke="white" stroke-width="0.5" stroke-linecap="round"/>
</svg>
