<svg width="39" height="26" viewBox="0 0 39 26" fill="none" xmlns="http://www.w3.org/2000/svg">
<rect x="2.5" y="4.10107" width="4" height="4" rx="2" fill="#E02D2D"/>
<rect x="2.5" y="4.10107" width="4" height="4" rx="2" fill="white" fill-opacity="0.6"/>
<rect x="8.5" y="4.10107" width="4" height="4" rx="2" fill="#E02D2D"/>
<rect x="8.5" y="4.10107" width="4" height="4" rx="2" fill="white" fill-opacity="0.4"/>
<rect x="14.5" y="4.10107" width="4" height="4" rx="2" fill="#E02D2D"/>
<rect x="14.5" y="4.10107" width="4" height="4" rx="2" fill="white" fill-opacity="0.2"/>
<rect x="20.5" y="4.10107" width="4" height="4" rx="2" fill="#D73434"/>
<rect x="26.5" y="4.10107" width="4" height="4" rx="2" fill="#E02D2D"/>
<rect x="26.5" y="4.10107" width="4" height="4" rx="2" fill="black" fill-opacity="0.2"/>
<rect x="32.5" y="4.10107" width="4" height="4" rx="2" fill="#E02D2D"/>
<rect x="32.5" y="4.10107" width="4" height="4" rx="2" fill="black" fill-opacity="0.4"/>
<rect x="2.5" y="11.1011" width="4" height="4" rx="2" fill="#5EBC4E"/>
<rect x="2.5" y="11.1011" width="4" height="4" rx="2" fill="white" fill-opacity="0.6"/>
<rect x="8.5" y="11.1011" width="4" height="4" rx="2" fill="#5EBC4E"/>
<rect x="8.5" y="11.1011" width="4" height="4" rx="2" fill="white" fill-opacity="0.4"/>
<rect x="14.5" y="11.1011" width="4" height="4" rx="2" fill="#5EBC4E"/>
<rect x="14.5" y="11.1011" width="4" height="4" rx="2" fill="white" fill-opacity="0.2"/>
<rect x="20.5" y="11.1011" width="4" height="4" rx="2" fill="#5EBC4E"/>
<rect x="26.5" y="11.1011" width="4" height="4" rx="2" fill="#5EBC4E"/>
<rect x="26.5" y="11.1011" width="4" height="4" rx="2" fill="black" fill-opacity="0.2"/>
<rect x="32.5" y="11.1011" width="4" height="4" rx="2" fill="#5EBC4E"/>
<rect x="32.5" y="11.1011" width="4" height="4" rx="2" fill="black" fill-opacity="0.35"/>
<rect x="2.5" y="18.1011" width="4" height="4" rx="2" fill="#A946F6"/>
<rect x="2.5" y="18.1011" width="4" height="4" rx="2" fill="white" fill-opacity="0.6"/>
<rect x="8.5" y="18.1011" width="4" height="4" rx="2" fill="#A946F6"/>
<rect x="8.5" y="18.1011" width="4" height="4" rx="2" fill="white" fill-opacity="0.5"/>
<rect x="14.5" y="18.1011" width="4" height="4" rx="2" fill="#A946F6"/>
<rect x="14.5" y="18.1011" width="4" height="4" rx="2" fill="white" fill-opacity="0.2"/>
<path d="M3 2.60107L12 2.60107" stroke="#666666" stroke-width="0.5" stroke-linecap="round"/>
<path d="M15 2.60107L24 2.60107" stroke="#666666" stroke-width="0.5" stroke-linecap="round"/>
</svg>
