<svg width="39" height="26" viewBox="0 0 39 26" fill="none" xmlns="http://www.w3.org/2000/svg">
<rect x="2.5" y="4.10107" width="4" height="4" rx="2" fill="#D9D9D9" fill-opacity="0.3"/>
<rect x="8.5" y="4.10107" width="4" height="4" rx="2" fill="#D9D9D9" fill-opacity="0.3"/>
<rect x="14.5" y="4.10107" width="4" height="4" rx="2" fill="#D9D9D9" fill-opacity="0.3"/>
<rect x="20.5" y="4.10107" width="4" height="4" rx="2" fill="#D9D9D9" fill-opacity="0.3"/>
<rect x="26.5" y="4.10107" width="4" height="4" rx="2" fill="#D9D9D9" fill-opacity="0.3"/>
<rect x="32.5" y="4.10107" width="4" height="4" rx="2" fill="#D9D9D9" fill-opacity="0.3"/>
<rect x="2.5" y="11.1011" width="4" height="4" rx="2" fill="#D9D9D9" fill-opacity="0.3"/>
<rect x="8.5" y="11.1011" width="4" height="4" rx="2" fill="#D9D9D9" fill-opacity="0.3"/>
<rect x="14.5" y="11.1011" width="4" height="4" rx="2" fill="#D9D9D9" fill-opacity="0.3"/>
<rect x="20.5" y="11.1011" width="4" height="4" rx="2" fill="#D9D9D9" fill-opacity="0.3"/>
<rect x="26.5" y="11.1011" width="4" height="4" rx="2" fill="#D9D9D9" fill-opacity="0.3"/>
<rect x="32.5" y="11.1011" width="4" height="4" rx="2" fill="#D9D9D9" fill-opacity="0.3"/>
<rect x="2.5" y="18.1011" width="4" height="4" rx="2" fill="#D9D9D9" fill-opacity="0.3"/>
<rect x="8.5" y="18.1011" width="4" height="4" rx="2" fill="#D9D9D9" fill-opacity="0.3"/>
<rect x="14.5" y="18.1011" width="4" height="4" rx="2" fill="#D9D9D9" fill-opacity="0.3"/>
</svg>
